<svg width="40" height="41" viewBox="0 0 40 41" fill="none" xmlns="http://www.w3.org/2000/svg">
<path fill-rule="evenodd" clip-rule="evenodd" d="M11.7545 0.621953C13.8873 0.523771 14.5673 0.501953 20 0.501953C25.4327 0.501953 26.1127 0.525589 28.2436 0.621953C30.3745 0.718317 31.8291 1.05832 33.1018 1.55104C34.4345 2.05468 35.6436 2.84195 36.6436 3.86013C37.6618 4.85832 38.4473 6.06559 38.9491 7.40013C39.4436 8.67286 39.7818 10.1274 39.88 12.2547C39.9782 14.391 40 15.071 40 20.502C40 25.9347 39.9764 26.6147 39.88 28.7474C39.7836 30.8747 39.4436 32.3292 38.9491 33.602C38.4473 34.9367 37.6605 36.146 36.6436 37.1456C35.6436 38.1638 34.4345 38.9492 33.1018 39.451C31.8291 39.9456 30.3745 40.2838 28.2473 40.382C26.1127 40.4801 25.4327 40.502 20 40.502C14.5673 40.502 13.8873 40.4783 11.7545 40.382C9.62727 40.2856 8.17273 39.9456 6.9 39.451C5.56531 38.9492 4.35604 38.1624 3.35636 37.1456C2.33887 36.1468 1.55148 34.9381 1.04909 33.6038C0.556364 32.331 0.218182 30.8765 0.12 28.7492C0.0218181 26.6129 0 25.9329 0 20.502C0 15.0692 0.0236363 14.3892 0.12 12.2583C0.216364 10.1274 0.556364 8.67286 1.04909 7.40013C1.55222 6.06574 2.34022 4.85707 3.35818 3.85832C4.35644 2.84105 5.56449 2.05367 6.89818 1.55104C8.17091 1.05832 9.62545 0.720135 11.7527 0.621953H11.7545ZM28.0818 4.22195C25.9727 4.12559 25.34 4.10559 20 4.10559C14.66 4.10559 14.0273 4.12559 11.9182 4.22195C9.96727 4.31104 8.90909 4.6365 8.20364 4.91104C7.27091 5.27468 6.60364 5.70559 5.90364 6.40559C5.24008 7.05114 4.72942 7.83701 4.40909 8.70559C4.13454 9.41104 3.80909 10.4692 3.72 12.4201C3.62364 14.5292 3.60364 15.162 3.60364 20.502C3.60364 25.842 3.62364 26.4747 3.72 28.5838C3.80909 30.5347 4.13454 31.5929 4.40909 32.2983C4.72909 33.1656 5.24 33.9529 5.90364 34.5983C6.54909 35.262 7.33636 35.7729 8.20364 36.0929C8.90909 36.3674 9.96727 36.6929 11.9182 36.782C14.0273 36.8783 14.6582 36.8983 20 36.8983C25.3418 36.8983 25.9727 36.8783 28.0818 36.782C30.0327 36.6929 31.0909 36.3674 31.7964 36.0929C32.7291 35.7292 33.3964 35.2983 34.0964 34.5983C34.76 33.9529 35.2709 33.1656 35.5909 32.2983C35.8655 31.5929 36.1909 30.5347 36.28 28.5838C36.3764 26.4747 36.3964 25.842 36.3964 20.502C36.3964 15.162 36.3764 14.5292 36.28 12.4201C36.1909 10.4692 35.8655 9.41104 35.5909 8.70559C35.2273 7.77286 34.7964 7.10559 34.0964 6.40559C33.4508 5.74208 32.6649 5.23143 31.7964 4.91104C31.0909 4.6365 30.0327 4.31104 28.0818 4.22195ZM17.4455 26.6674C18.8721 27.2613 20.4607 27.3414 21.9399 26.8942C23.4191 26.4469 24.6971 25.5 25.5557 24.2151C26.4142 22.9303 26.8001 21.3872 26.6474 19.8494C26.4946 18.3117 25.8127 16.8746 24.7182 15.7838C24.0204 15.0865 23.1767 14.5525 22.2479 14.2204C21.319 13.8883 20.3281 13.7662 19.3464 13.8631C18.3647 13.9599 17.4166 14.2732 16.5706 14.7804C15.7245 15.2876 15.0014 15.976 14.4533 16.7962C13.9052 17.6164 13.5458 18.5479 13.4009 19.5237C13.2561 20.4995 13.3294 21.4952 13.6155 22.4393C13.9017 23.3833 14.3936 24.2522 15.0559 24.9833C15.7181 25.7144 16.5342 26.2896 17.4455 26.6674ZM12.7309 13.2329C13.6855 12.2783 14.8188 11.521 16.066 11.0044C17.3132 10.4878 18.65 10.2219 20 10.2219C21.35 10.2219 22.6868 10.4878 23.934 11.0044C25.1812 11.521 26.3145 12.2783 27.2691 13.2329C28.2237 14.1875 28.9809 15.3207 29.4975 16.5679C30.0141 17.8152 30.28 19.152 30.28 20.502C30.28 21.8519 30.0141 23.1887 29.4975 24.436C28.9809 25.6832 28.2237 26.8165 27.2691 27.771C25.3412 29.6989 22.7264 30.782 20 30.782C17.2736 30.782 14.6588 29.6989 12.7309 27.771C10.803 25.8432 9.71995 23.2284 9.71995 20.502C9.71995 17.7755 10.803 15.1607 12.7309 13.2329ZM32.56 11.7529C32.7966 11.5297 32.9859 11.2614 33.1169 10.9637C33.2479 10.6661 33.3178 10.3452 33.3226 10.02C33.3273 9.69485 33.2668 9.37204 33.1445 9.0707C33.0223 8.76936 32.8408 8.49561 32.6108 8.26566C32.3809 8.03571 32.1071 7.85424 31.8058 7.73198C31.5045 7.60973 31.1816 7.54918 30.8565 7.55392C30.5313 7.55866 30.2104 7.6286 29.9128 7.75958C29.6151 7.89057 29.3468 8.07994 29.1236 8.3165C28.6897 8.77655 28.4521 9.38763 28.4613 10.02C28.4705 10.6524 28.7258 11.2563 29.173 11.7035C29.6202 12.1507 30.2241 12.406 30.8565 12.4152C31.4889 12.4244 32.0999 12.1868 32.56 11.7529Z" fill="#8AAA20"/>
</svg>
